<svg width="661" height="513" viewBox="0 0 661 513" fill="none" xmlns="http://www.w3.org/2000/svg">
<g opacity="0.4">
<path d="M251.356 222.115C251.356 222.115 221.376 187.781 216.332 172.411C211.288 157.04 197.297 130.439 193.824 135.531C190.35 140.623 201.652 168.104 201.652 168.104C201.652 168.104 172.885 124.991 163.963 130.534C155.04 136.078 147.522 153.566 154.731 164.011C161.941 174.457 213.905 234.963 213.905 234.963L251.356 222.115Z" fill="white"/>
<path d="M213.905 236.295C214.055 236.32 214.207 236.32 214.357 236.295L251.808 223.542C252.026 223.465 252.223 223.336 252.38 223.166C252.538 222.996 252.652 222.79 252.712 222.567C252.779 222.342 252.788 222.104 252.738 221.875C252.689 221.646 252.581 221.434 252.426 221.258C252.117 220.925 222.566 186.948 217.688 172.03C213.524 159.348 201.604 134.508 195.394 133.58C194.873 133.502 194.341 133.575 193.86 133.79C193.38 134.005 192.971 134.353 192.681 134.793C190.302 138.267 193.276 149.307 196.298 158.016C186.781 144.905 170.506 124.872 163.202 129.464C156.868 134.028 152.511 140.835 151.019 148.498C150.316 151.259 150.18 154.133 150.622 156.947C151.064 159.761 152.073 162.456 153.589 164.868C160.727 175.242 210.693 233.393 212.834 235.867C212.974 236.008 213.141 236.119 213.325 236.192C213.509 236.266 213.707 236.301 213.905 236.295ZM248.929 221.472L214.357 233.25C208.456 226.374 162.583 172.863 155.897 163.202C154.598 161.089 153.741 158.735 153.377 156.281C153.013 153.828 153.15 151.326 153.779 148.927C155.14 142.04 159.017 135.908 164.653 131.724C167.889 129.749 181.118 139.933 200.343 168.889C200.557 169.119 200.842 169.27 201.153 169.319C201.463 169.367 201.781 169.31 202.055 169.156C202.329 169.003 202.544 168.762 202.665 168.472C202.786 168.182 202.806 167.859 202.722 167.557C198.106 156.445 192.586 139.409 194.751 136.34C197.821 136.34 209.456 156.683 214.762 172.839C219.377 186.591 242.909 214.453 248.929 221.472Z" fill="#231F20"/>
<path d="M368.49 473.015L363.446 509.894C363.446 509.894 589.125 512.559 586.436 509.894C583.748 507.23 586.436 453.124 586.436 453.124L368.49 473.015Z" fill="#231F20"/>
<path d="M531.593 512.512C586.912 512.512 587.293 511.584 587.745 510.489C587.855 510.222 587.885 509.929 587.83 509.646C587.775 509.362 587.638 509.101 587.436 508.895C586.08 506.349 586.603 478.273 587.84 453.195C587.851 452.994 587.819 452.794 587.746 452.606C587.672 452.419 587.56 452.25 587.415 452.11C587.271 451.97 587.098 451.863 586.909 451.796C586.719 451.728 586.518 451.702 586.318 451.72L368.347 471.611C368.032 471.645 367.737 471.782 367.509 472.002C367.281 472.222 367.132 472.511 367.086 472.824L362.042 509.704C362.018 509.9 362.035 510.098 362.092 510.287C362.149 510.475 362.246 510.65 362.375 510.799C362.503 510.953 362.663 511.077 362.844 511.164C363.024 511.25 363.222 511.296 363.422 511.298C363.993 511.298 419.55 511.964 474.537 512.297C498.163 512.44 516.794 512.512 531.593 512.512ZM584.676 508.895C570.662 510.346 448.174 509.466 365.064 508.491L369.822 474.323L585.033 454.67C584.057 472.896 583.058 500.972 584.676 508.895Z" fill="#231F20"/>
<path d="M447.412 27.9615C447.936 27.105 448.459 26.2484 449.006 25.3918C454.046 17.7307 460.989 11.5099 469.156 7.33902C477.323 3.1681 486.433 1.19002 495.594 1.59856C503.177 1.91272 510.703 3.06985 518.031 5.04859C525.43 7.1424 528 13.7569 534.281 16.9452C535.616 17.4993 537.048 17.7824 538.493 17.778C543.104 18.1525 547.623 19.286 551.865 21.1329C563.428 26.1532 571.161 42.2375 575.325 53.3727C583.149 75.2595 587.991 98.1 589.72 121.279C591.647 142.693 594.169 166.676 586.056 187.258C578.247 207.784 566.81 226.74 552.293 243.219C525.383 272.747 484.982 290.259 445.223 287.047C421.43 285.119 398.898 276.292 377.936 265.109C365.896 258.685 354 251.238 345.791 240.34C330.302 219.83 331.515 188.638 348.17 168.96C366.087 147.547 394.282 138.41 412.151 116.615C431.851 92.4175 431.138 54.8717 447.412 27.9615Z" fill="white"/>
<path d="M454.407 288.95C490.597 288.95 527.786 272.295 553.34 244.314C568.006 227.739 579.527 208.63 587.34 187.924C595.311 167.771 593.194 144.334 591.314 123.682L591.1 121.303C589.392 98.0002 584.534 75.0369 576.657 53.0396C572.065 40.7623 564.118 25.0587 552.412 19.9669C548.025 18.0632 543.355 16.8975 538.588 16.5169H538.207C537.09 16.5065 535.985 16.2887 534.948 15.8745C532.554 14.5145 530.399 12.7702 528.571 10.7114C525.894 7.53046 522.384 5.1577 518.435 3.8589C511.001 1.83699 503.363 0.655799 495.665 0.337493C486.264 -0.0783875 476.915 1.94446 468.527 6.2095C460.138 10.4745 452.996 16.8368 447.793 24.678C447.222 25.5346 446.698 26.4149 446.175 27.2715C438.775 39.5488 434.825 54.1579 430.971 68.2673C426.379 85.1843 421.62 102.672 410.961 115.854C402.038 126.799 390.213 134.722 378.769 142.36C367.324 149.997 355.951 157.635 347.005 168.294C329.969 188.59 328.922 220.639 344.625 241.459C353.262 252.927 366.039 260.493 377.222 266.608C401.943 279.79 424.119 286.999 445.057 288.712C448.15 288.831 451.29 288.95 454.407 288.95ZM493.642 3.07372H495.546C503.02 3.41237 510.433 4.57741 517.65 6.54754C521.115 7.75374 524.19 9.87487 526.549 12.6862C528.608 14.9522 531.018 16.8723 533.687 18.3728C535.055 18.9658 536.526 19.289 538.017 19.3245H538.421C542.877 19.6818 547.243 20.7753 551.341 22.5604C562.001 27.2477 569.614 42.2375 573.897 54.1341C581.679 75.8957 586.482 98.6102 588.173 121.659L588.387 124.039C590.219 144.406 592.313 167.485 584.604 187.043C576.901 207.422 565.558 226.231 551.127 242.553C523.931 272.39 483.316 288.998 445.128 285.928C424.594 284.263 402.776 277.149 378.507 264.157C367.491 258.304 355.142 250.809 346.814 239.793C331.92 220.045 332.943 189.446 349.193 170.126C357.878 159.776 369.323 152.115 380.386 144.715C391.998 136.959 403.989 128.94 413.197 117.638C424.214 104.124 429.068 86.3502 433.731 69.1477C437.514 55.2048 441.44 40.8099 448.626 28.8656C449.125 28.0091 449.649 27.1763 450.196 26.3435C454.93 19.1568 461.383 13.2648 468.97 9.20152C476.556 5.13823 485.036 3.03203 493.642 3.07372V3.07372Z" fill="#231F20"/>
<path d="M596.62 486.744C604.686 434.398 635.355 218.974 600.07 184.569C559.835 145.31 449.197 147.023 428.925 182.523C417.909 201.771 386.93 234.178 384.55 276.292C381.172 336.037 363.374 448.46 359.115 486.791L596.62 486.744Z" fill="#68E1FD"/>
<path d="M507.324 486.744L532.021 182.475L469.183 189.113L435.016 486.744H507.324Z" fill="#231F20"/>
<path d="M435.016 488.147H507.276C507.627 488.143 507.964 488.01 508.223 487.773C508.482 487.536 508.645 487.212 508.68 486.862L533.449 182.618C533.468 182.412 533.441 182.204 533.37 182.01C533.298 181.816 533.184 181.641 533.035 181.497C532.887 181.353 532.708 181.244 532.512 181.179C532.316 181.114 532.107 181.093 531.902 181.119L469.064 187.757C468.746 187.792 468.448 187.933 468.219 188.157C467.99 188.382 467.844 188.677 467.803 188.994L433.517 486.577C433.491 486.773 433.507 486.972 433.565 487.16C433.622 487.349 433.719 487.523 433.85 487.671C433.996 487.833 434.177 487.96 434.379 488.042C434.581 488.125 434.798 488.161 435.016 488.147V488.147ZM506.015 485.34H436.586L470.444 190.303L530.475 183.95L506.015 485.34Z" fill="#231F20"/>
<path d="M472.776 149.831L469.207 189.113C469.207 189.113 481.104 202.818 497.188 204.103C523.36 206.221 532.045 182.475 532.045 182.475C533.068 164.273 534.234 146.095 535.209 127.917C535.876 115.521 542.538 90.0381 530.689 81.7343C527.405 79.355 523.551 77.975 520.196 75.8574C515.156 72.634 511.118 68.0641 508.54 62.665C505.963 57.2658 504.948 51.2529 505.611 45.3068C501.209 50.6841 496.522 56.2755 490.097 58.9403C484.656 60.7665 478.904 61.4865 473.18 61.0579C467.518 61.0579 460.522 59.7969 454.979 60.8676C449.03 62.0335 450.886 60.8676 449.339 66.0069C447.507 72.217 448.412 80.6636 448.007 87.1354C447.293 98.8417 446.27 110.619 446.27 122.349C447.365 142.978 472.776 149.831 472.776 149.831Z" fill="white"/>
<path d="M500.4 205.65C524.836 205.65 533.258 183.189 533.354 182.951C533.376 182.817 533.376 182.68 533.354 182.546C533.829 174.338 534.305 166.153 534.805 157.944C535.392 147.983 535.971 137.998 536.542 127.988C536.542 125.443 537.065 122.23 537.494 118.828C539.183 105.67 541.467 87.6351 531.402 80.5685C529.474 79.2739 527.454 78.1208 525.359 77.1184C523.836 76.3333 522.266 75.5481 520.838 74.7391C516.046 71.6467 512.207 67.284 509.75 62.1375C507.292 56.9911 506.312 51.2631 506.919 45.5923C506.956 45.2898 506.895 44.9833 506.745 44.7179C506.595 44.4524 506.365 44.2419 506.086 44.1172C505.803 43.9912 505.486 43.9625 505.185 44.0357C504.883 44.1089 504.615 44.2798 504.421 44.5216C500.352 49.4944 495.713 55.1334 489.479 57.7269C484.197 59.4584 478.629 60.1453 473.085 59.7493C471.277 59.7493 469.35 59.5828 467.303 59.44C463.087 58.9488 458.826 58.9967 454.622 59.5828L452.456 59.9635C449.625 60.4631 449.03 60.7725 448.507 63.247C448.388 63.818 448.221 64.627 447.912 65.6263C446.782 70.5054 446.349 75.5202 446.627 80.5209C446.627 82.9002 446.627 85.0654 446.627 87.0878C446.46 89.8478 446.27 92.6079 446.08 95.3679C445.509 104.219 444.89 113.356 444.89 122.373C445.937 141.408 466.304 149.236 471.324 150.925L467.827 188.994C467.809 189.182 467.829 189.372 467.887 189.552C467.944 189.732 468.037 189.898 468.16 190.041C468.66 190.612 480.675 204.198 497.093 205.507C498.203 205.602 499.305 205.65 500.4 205.65ZM530.641 182.166C529.737 184.545 521.124 204.579 497.33 202.699C483.649 201.605 472.871 190.803 470.682 188.614L474.251 149.95C474.278 149.62 474.188 149.291 473.997 149.021C473.805 148.751 473.525 148.557 473.204 148.474C472.966 148.474 448.768 141.622 447.722 122.302C447.722 113.475 448.316 104.386 448.911 95.582C449.102 92.7982 449.268 90.0382 449.435 87.2782C449.577 85.1606 449.554 82.924 449.554 80.5447C449.3 75.8183 449.692 71.0793 450.719 66.459C450.991 65.5758 451.213 64.6782 451.386 63.7704C451.44 63.4731 451.512 63.1792 451.6 62.8901C452.088 62.8711 452.574 62.8074 453.051 62.6997L455.288 62.319C459.238 61.8199 463.235 61.8199 467.184 62.319C469.278 62.4618 471.253 62.6045 473.133 62.6283C479.052 63.0768 485 62.3241 490.621 60.4156C495.881 57.8436 500.456 54.0599 503.969 49.3755C504.102 54.8822 505.578 60.273 508.269 65.0791C510.96 69.8852 514.785 73.9609 519.411 76.9519C520.957 77.9036 522.575 78.7364 524.169 79.5215C526.144 80.4787 528.052 81.5678 529.88 82.7812C538.54 88.8723 536.375 105.932 534.805 118.471C534.353 121.921 533.948 125.181 533.806 127.846C533.282 137.807 532.703 147.784 532.069 157.778C531.577 165.915 531.101 174.044 530.641 182.166Z" fill="#231F20"/>
<path d="M519.173 105.599C522.147 97.2475 533.068 91.323 541.753 93.4644C552.959 96.3433 551.579 109.239 547.201 117.258C545.867 119.673 544.067 121.8 541.906 123.515C539.744 125.23 537.264 126.499 534.609 127.249C531.953 127.999 529.176 128.215 526.436 127.885C523.697 127.554 521.05 126.684 518.649 125.324" fill="white"/>
<path d="M528.976 129.392C532.956 129.39 536.864 128.32 540.291 126.295C543.718 124.269 546.54 121.362 548.462 117.876C551.127 113.118 553.221 105.171 550.675 99.0558C549.896 97.3045 548.714 95.7623 547.225 94.5549C545.737 93.3475 543.984 92.5091 542.109 92.1082C532.878 89.7288 521.076 96.0579 517.864 105.123C517.802 105.298 517.774 105.484 517.783 105.669C517.793 105.855 517.838 106.037 517.918 106.205C517.997 106.373 518.109 106.523 518.247 106.648C518.385 106.773 518.546 106.869 518.721 106.931C518.896 106.994 519.081 107.021 519.267 107.012C519.452 107.003 519.634 106.957 519.802 106.878C519.97 106.798 520.121 106.686 520.245 106.548C520.37 106.411 520.466 106.25 520.529 106.075C522.222 102.111 525.211 98.8385 529.006 96.7941C532.801 94.7496 537.177 94.0538 541.419 94.8206C542.87 95.1318 544.228 95.7779 545.385 96.7075C546.542 97.637 547.465 98.8241 548.082 100.174C550.175 104.933 548.534 111.88 545.988 116.496C544.747 118.755 543.07 120.745 541.054 122.35C539.037 123.955 536.722 125.143 534.242 125.845C531.762 126.547 529.168 126.749 526.609 126.438C524.051 126.128 521.58 125.313 519.339 124.039C519.18 123.942 519.002 123.879 518.817 123.853C518.632 123.827 518.444 123.839 518.264 123.888C518.083 123.937 517.915 124.022 517.769 124.138C517.622 124.254 517.501 124.398 517.412 124.562C517.319 124.723 517.258 124.9 517.234 125.085C517.21 125.269 517.223 125.456 517.271 125.635C517.32 125.814 517.404 125.982 517.518 126.129C517.632 126.276 517.774 126.398 517.935 126.489C521.306 128.387 525.108 129.386 528.976 129.392V129.392Z" fill="#231F20"/>
<path d="M476.345 81.425C476.345 81.425 459.88 99.9838 462.64 103.957C465.4 107.931 474.822 106.86 474.822 106.86" fill="white"/>
<path d="M471.8 108.407C473.371 108.407 474.56 108.407 474.893 108.264C475.264 108.216 475.601 108.025 475.833 107.731C476.064 107.438 476.171 107.065 476.131 106.693C476.113 106.507 476.058 106.327 475.969 106.162C475.879 105.998 475.758 105.854 475.611 105.738C475.464 105.622 475.295 105.538 475.114 105.489C474.934 105.441 474.745 105.43 474.56 105.456C472.348 105.718 465.566 105.837 463.711 103.077C462.592 101.459 469.064 91.5371 477.297 82.2577C477.45 82.1245 477.573 81.9602 477.657 81.7757C477.742 81.5912 477.786 81.3908 477.787 81.1878C477.788 80.9848 477.746 80.784 477.663 80.5986C477.58 80.4133 477.459 80.2477 477.307 80.113C477.155 79.9782 476.977 79.8774 476.783 79.8172C476.589 79.7571 476.385 79.7389 476.183 79.764C475.982 79.7891 475.788 79.8568 475.615 79.9627C475.442 80.0686 475.293 80.2102 475.179 80.3781C470.016 86.2074 458.31 100.245 461.379 104.671C463.52 107.859 468.493 108.407 471.8 108.407Z" fill="#231F20"/>
<path d="M472.776 149.831C472.776 149.831 487.456 153.994 506.348 144.049C506.348 144.049 497.116 171.054 470.849 171.102L472.776 149.831Z" fill="#231F20"/>
<path d="M470.849 172.506C497.806 172.506 507.585 144.786 507.681 144.501C507.774 144.234 507.783 143.944 507.706 143.672C507.63 143.4 507.471 143.157 507.252 142.978C507.04 142.792 506.777 142.675 506.497 142.641C506.216 142.607 505.933 142.658 505.682 142.788C487.528 152.305 473.323 148.522 473.18 148.474C472.98 148.416 472.77 148.403 472.564 148.435C472.358 148.468 472.162 148.547 471.991 148.665C471.817 148.783 471.671 148.938 471.564 149.119C471.457 149.3 471.392 149.502 471.372 149.712L469.445 170.959C469.425 171.155 469.446 171.353 469.508 171.54C469.569 171.727 469.67 171.899 469.802 172.045C469.934 172.191 470.096 172.308 470.276 172.387C470.457 172.466 470.652 172.507 470.849 172.506V172.506ZM503.517 146.928C500.138 153.804 490.74 168.746 472.395 169.579L474.037 151.472C484.097 152.945 494.367 151.361 503.517 146.928V146.928Z" fill="#231F20"/>
<path d="M497.259 91.2278C495.748 91.2278 494.523 88.4368 494.523 84.994C494.523 81.5511 495.748 78.7601 497.259 78.7601C498.77 78.7601 499.995 81.5511 499.995 84.994C499.995 88.4368 498.77 91.2278 497.259 91.2278Z" fill="#231F20"/>
<path d="M460.955 87.6046C459.446 87.5197 458.38 84.6643 458.573 81.2269C458.766 77.7895 460.146 75.0717 461.655 75.1566C463.164 75.2415 464.23 78.0969 464.037 81.5343C463.844 84.9717 462.464 87.6895 460.955 87.6046Z" fill="#231F20"/>
<path d="M481.603 136.649C482.329 136.644 483.053 136.58 483.768 136.459C484.806 136.283 485.793 135.886 486.664 135.295C487.534 134.704 488.267 133.932 488.813 133.033C492.953 126.489 489.407 112.951 489.265 112.356C489.169 112.007 488.943 111.708 488.633 111.522C488.322 111.336 487.952 111.277 487.599 111.357L466.185 115.806C465.836 115.881 465.528 116.084 465.321 116.374C465.114 116.665 465.023 117.022 465.067 117.377C465.992 123.869 469.269 129.796 474.275 134.032C476.367 135.679 478.941 136.598 481.603 136.649V136.649ZM486.838 114.402C487.813 118.709 489.027 127.417 486.433 131.51C486.098 132.082 485.64 132.572 485.093 132.947C484.546 133.321 483.923 133.57 483.269 133.675C481.995 133.9 480.687 133.853 479.433 133.537C478.178 133.221 477.004 132.644 475.988 131.843C471.907 128.354 469.138 123.579 468.136 118.305L486.838 114.402Z" fill="#231F20"/>
<path d="M333.014 281.003C322.735 275.864 240.982 186.306 240.982 186.306L193.395 226.159C194.252 232.703 268.963 388.929 312.695 380.959C356.427 372.988 450.267 317.002 450.267 317.002L428.853 182.475C428.853 182.475 343.317 286.142 333.014 281.003Z" fill="#68E1FD"/>
<path d="M363.446 454.527C363.776 454.527 364.096 454.409 364.348 454.196C364.601 453.983 364.77 453.687 364.826 453.362L402.015 237.937C402.046 237.754 402.041 237.567 402 237.386C401.959 237.206 401.882 237.035 401.775 236.883C401.668 236.732 401.532 236.603 401.375 236.504C401.218 236.406 401.043 236.339 400.861 236.307C400.678 236.276 400.491 236.281 400.31 236.322C400.129 236.363 399.958 236.44 399.807 236.547C399.655 236.654 399.527 236.79 399.428 236.947C399.329 237.104 399.262 237.279 399.231 237.461L362.137 452.886C362.103 453.067 362.106 453.254 362.145 453.434C362.184 453.615 362.26 453.785 362.366 453.936C362.473 454.087 362.608 454.215 362.765 454.313C362.922 454.41 363.097 454.475 363.279 454.504L363.446 454.527Z" fill="#231F20"/>
<path d="M487.885 391.999C487.718 390.642 476.868 389.143 475.322 388.691C469.826 387.073 464.068 386.027 458.452 384.884C447.531 382.695 435.849 380.292 424.666 381.292C405.036 383.076 429.139 395.568 429.139 395.568C429.139 395.568 383.599 383.957 386.311 395.568C389.024 407.179 410.438 417.91 423.833 421.479C437.229 425.047 491.715 421.479 491.715 421.479L487.885 391.999Z" fill="white"/>
<path d="M447.507 424.429C467.066 424.429 490.335 422.93 491.763 422.835C492.148 422.803 492.506 422.624 492.762 422.335C492.882 422.186 492.971 422.014 493.024 421.831C493.077 421.647 493.093 421.454 493.072 421.264C493.072 421.264 489.312 391.999 489.288 391.785C489.074 390.143 487.123 389.405 478.391 387.859C477.106 387.621 476.012 387.43 475.702 387.311C470.944 385.931 465.971 384.932 461.165 383.98L458.119 383.362C447.103 381.149 435.73 378.865 424.547 379.864C421.026 380.197 416.267 381.006 415.624 384.266C415.101 386.931 418.004 389.857 421.145 392.26C409.819 389.881 390.879 386.764 386.073 391.475C385.496 392.033 385.082 392.738 384.877 393.514C384.671 394.289 384.682 395.107 384.907 395.877C387.739 408.131 409.129 419.004 423.429 422.811C428.045 424.024 437.276 424.429 447.507 424.429ZM490.097 420.122C481.246 420.67 435.944 423.215 424.142 420.122C410.39 416.458 390.07 405.846 387.644 395.258C387.528 394.958 387.505 394.63 387.577 394.316C387.649 394.003 387.813 393.718 388.048 393.498C392.14 389.477 415.22 393.498 428.806 396.948C429.14 397.027 429.491 396.981 429.794 396.819C430.096 396.657 430.329 396.389 430.448 396.067C430.573 395.747 430.574 395.391 430.451 395.07C430.328 394.748 430.089 394.485 429.781 394.33C423.976 391.309 417.885 386.788 418.384 384.813C418.527 384.075 420.288 383.076 424.809 382.672C435.587 381.696 446.746 383.957 457.572 386.122L460.618 386.74C465.376 387.668 470.278 388.644 474.894 390.024C475.322 390.143 476.464 390.357 477.868 390.619C480.801 391.065 483.696 391.733 486.528 392.617C486.981 395.853 489.384 414.674 490.097 420.122Z" fill="#231F20"/>
<path d="M605.875 193.468C606.803 195.847 691.983 398.447 648.703 425.024C605.423 451.601 470.753 441.298 470.753 441.298L476.345 381.244L584.485 366.73L605.875 193.468Z" fill="#68E1FD"/>
<path d="M481.104 382.648H481.341L608.207 362.543C608.576 362.483 608.907 362.278 609.125 361.975C609.344 361.672 609.433 361.294 609.373 360.925C609.313 360.555 609.109 360.225 608.806 360.007C608.502 359.788 608.124 359.699 607.755 359.759L480.889 379.864C480.524 379.923 480.197 380.123 479.979 380.421C479.76 380.72 479.669 381.093 479.724 381.458C479.77 381.79 479.935 382.094 480.189 382.313C480.443 382.532 480.768 382.651 481.104 382.648V382.648Z" fill="#231F20"/>
<path d="M590.933 362.566C591.306 362.566 591.663 362.418 591.926 362.155C592.189 361.892 592.337 361.535 592.337 361.163C592.694 327.614 583.438 243.124 583.343 242.196C583.29 241.828 583.097 241.494 582.805 241.264C582.513 241.034 582.143 240.925 581.773 240.959C581.404 241.001 581.067 241.187 580.835 241.477C580.603 241.767 580.495 242.136 580.536 242.505C580.536 243.362 589.863 327.685 589.529 361.067C589.523 361.253 589.554 361.437 589.621 361.61C589.687 361.783 589.788 361.941 589.916 362.074C590.045 362.207 590.2 362.313 590.37 362.386C590.541 362.458 590.724 362.495 590.909 362.495L590.933 362.566Z" fill="#231F20"/>
<path d="M333.49 391.071H493.999L466.042 291.543H305.533L333.49 391.071Z" fill="white"/>
<path d="M333.585 392.474H493.999C494.215 392.472 494.427 392.422 494.62 392.327C494.814 392.232 494.984 392.096 495.118 391.927C495.249 391.753 495.339 391.551 495.381 391.336C495.422 391.122 495.413 390.901 495.356 390.69L467.375 291.163C467.293 290.871 467.119 290.614 466.878 290.43C466.638 290.245 466.345 290.144 466.042 290.14H305.533C305.315 290.141 305.1 290.194 304.906 290.293C304.712 290.392 304.544 290.535 304.415 290.711C304.283 290.88 304.193 291.079 304.152 291.289C304.111 291.5 304.119 291.717 304.177 291.924L332.158 391.451C332.244 391.759 332.432 392.028 332.692 392.214C332.951 392.4 333.266 392.492 333.585 392.474V392.474ZM492.144 389.619H334.561L307.413 292.947H464.972L492.144 389.619Z" fill="#231F20"/>
<path d="M331.943 391.071H537.089V399.256H331.943V391.071Z" fill="white"/>
<path d="M331.944 400.659H537.089C537.274 400.663 537.458 400.629 537.63 400.559C537.802 400.49 537.958 400.387 538.089 400.255C538.22 400.124 538.323 399.968 538.393 399.797C538.462 399.625 538.496 399.441 538.493 399.256V391.071C538.496 390.886 538.462 390.702 538.393 390.53C538.323 390.358 538.22 390.202 538.089 390.071C537.958 389.94 537.802 389.837 537.63 389.767C537.458 389.698 537.274 389.664 537.089 389.667H331.944C331.571 389.667 331.214 389.815 330.951 390.078C330.688 390.341 330.54 390.698 330.54 391.071V399.256C330.54 399.628 330.688 399.985 330.951 400.248C331.214 400.512 331.571 400.659 331.944 400.659V400.659ZM535.685 397.852H333.442V392.475H535.685V397.852Z" fill="#231F20"/>
<path d="M491.62 391.071H537.089V399.256H491.62V391.071Z" fill="white"/>
<path d="M491.62 400.659H537.089C537.274 400.663 537.458 400.629 537.63 400.559C537.802 400.49 537.958 400.387 538.089 400.255C538.22 400.124 538.323 399.968 538.393 399.797C538.462 399.625 538.496 399.441 538.493 399.256V391.071C538.496 390.886 538.462 390.702 538.393 390.53C538.323 390.358 538.22 390.202 538.089 390.071C537.958 389.94 537.802 389.837 537.63 389.767C537.458 389.698 537.274 389.664 537.089 389.667H491.62C491.435 389.664 491.251 389.698 491.079 389.767C490.907 389.837 490.751 389.94 490.62 390.071C490.489 390.202 490.386 390.358 490.317 390.53C490.247 390.702 490.213 390.886 490.216 391.071V399.256C490.213 399.441 490.247 399.625 490.317 399.797C490.386 399.968 490.489 400.124 490.62 400.255C490.751 400.387 490.907 400.49 491.079 400.559C491.251 400.629 491.435 400.663 491.62 400.659V400.659ZM535.685 397.852H493V392.475H535.685V397.852Z" fill="#231F20"/>
<path d="M447.365 399.541C437.395 396.377 428.711 390.238 419.717 384.884C412.579 380.578 404.584 376.533 396.114 375.367C392.944 375.2 389.767 375.2 386.597 375.367C383.813 375.367 379.911 374.249 378.007 377.033C374.319 382.386 377.127 395.71 397.827 409.32" fill="white"/>
<path d="M397.827 410.795C398.126 410.791 398.416 410.691 398.655 410.51C398.893 410.33 399.068 410.077 399.153 409.79C399.238 409.504 399.229 409.197 399.127 408.915C399.026 408.634 398.837 408.392 398.588 408.226C387.168 400.707 379.768 392.094 378.293 384.599C377.986 383.482 377.906 382.315 378.057 381.167C378.209 380.019 378.588 378.912 379.173 377.913C380.172 376.438 382.147 376.485 384.836 376.723H386.525C387.88 376.796 389.239 376.796 390.594 376.723C392.366 376.545 394.151 376.545 395.923 376.723C404.15 378.276 411.987 381.446 418.979 386.05C420.835 387.145 422.691 388.287 424.547 389.429C431.515 394.137 439.034 397.972 446.936 400.85C447.293 400.955 447.676 400.916 448.005 400.743C448.334 400.57 448.582 400.275 448.697 399.922C448.809 399.568 448.777 399.185 448.608 398.855C448.439 398.525 448.146 398.276 447.793 398.161C440.11 395.349 432.799 391.609 426.022 387.026L420.431 383.623C413.531 379.531 405.274 375.177 396.328 373.939C394.366 373.738 392.389 373.738 390.427 373.939C389.119 373.939 387.905 374.082 386.644 373.939H385.098C382.48 373.725 378.864 373.392 376.841 376.319C376.049 377.63 375.526 379.086 375.301 380.601C375.077 382.117 375.155 383.661 375.533 385.146C376.484 389.905 380.529 399.708 397.066 410.557C397.288 410.714 397.555 410.797 397.827 410.795V410.795Z" fill="#231F20"/>
<path d="M117.066 86.5406H192.039C192.212 86.5437 192.382 86.504 192.536 86.4251C192.69 86.3462 192.821 86.2306 192.919 86.0885C193.027 85.9532 193.099 85.7928 193.128 85.6222C193.157 85.4516 193.143 85.2764 193.086 85.113L184.211 57.6079C184.14 57.3862 184 57.1928 183.812 57.0559C183.624 56.919 183.397 56.8456 183.164 56.8465H108.144C107.971 56.8435 107.8 56.8831 107.647 56.962C107.493 57.0409 107.362 57.1565 107.263 57.2986C107.161 57.4412 107.092 57.6055 107.063 57.7788C107.034 57.9521 107.046 58.1298 107.097 58.2979L115.972 85.7792C116.045 86.0089 116.192 86.2081 116.39 86.3457C116.588 86.4834 116.825 86.5519 117.066 86.5406ZM190.588 84.3516H117.851L109.69 59.0355H182.379L190.588 84.3516Z" fill="#D1D3D4"/>
<path d="M83.0016 211.14H156.451C156.61 211.163 156.772 211.152 156.927 211.107C157.081 211.062 157.224 210.984 157.345 210.88C157.467 210.775 157.564 210.645 157.631 210.499C157.698 210.353 157.732 210.194 157.732 210.033C157.732 209.873 157.698 209.714 157.631 209.568C157.564 209.422 157.467 209.292 157.345 209.187C157.224 209.082 157.081 209.004 156.927 208.959C156.772 208.915 156.61 208.903 156.451 208.927H83.0016C82.736 208.966 82.4934 209.099 82.3179 209.302C82.1425 209.505 82.046 209.765 82.046 210.033C82.046 210.302 82.1425 210.561 82.3179 210.764C82.4934 210.967 82.736 211.101 83.0016 211.14V211.14Z" fill="#D1D3D4"/>
<path d="M88.6167 228.485H162.09C162.356 228.446 162.599 228.313 162.774 228.109C162.949 227.906 163.046 227.647 163.046 227.378C163.046 227.11 162.949 226.851 162.774 226.647C162.599 226.444 162.356 226.311 162.09 226.272H88.6167C88.3512 226.311 88.1085 226.444 87.9331 226.647C87.7577 226.851 87.6611 227.11 87.6611 227.378C87.6611 227.647 87.7577 227.906 87.9331 228.109C88.1085 228.313 88.3512 228.446 88.6167 228.485V228.485Z" fill="#D1D3D4"/>
<path d="M112.308 187.376H124.918C125.088 187.378 125.256 187.341 125.409 187.266C125.562 187.192 125.695 187.083 125.799 186.948C125.907 186.808 125.978 186.644 126.007 186.469C126.036 186.295 126.022 186.116 125.965 185.949L118.185 161.822C118.114 161.601 117.974 161.407 117.786 161.27C117.598 161.133 117.371 161.06 117.138 161.061H104.527C104.355 161.058 104.184 161.098 104.03 161.177C103.877 161.255 103.745 161.371 103.647 161.513C103.544 161.651 103.476 161.812 103.447 161.981C103.418 162.15 103.43 162.324 103.48 162.489L111.261 186.639C111.332 186.858 111.473 187.049 111.662 187.181C111.85 187.314 112.077 187.383 112.308 187.376V187.376ZM123.419 185.187H113.117L105.979 163.25H116.305L123.419 185.187Z" fill="#D1D3D4"/>
<path d="M83.1371 187.376H95.6524C95.8214 187.373 95.9876 187.333 96.1396 187.259C96.2917 187.185 96.4258 187.079 96.5327 186.948C96.6355 186.806 96.704 186.641 96.7329 186.468C96.7618 186.295 96.7502 186.117 96.6993 185.949L82.2805 141.336C82.2142 141.117 82.0789 140.924 81.8947 140.787C81.7105 140.65 81.4871 140.576 81.2574 140.575H68.6232C68.4516 140.578 68.2829 140.62 68.1303 140.698C67.9776 140.777 67.845 140.889 67.7428 141.027C67.6444 141.167 67.5802 141.329 67.5554 141.498C67.5306 141.667 67.5459 141.84 67.6001 142.003L82.0902 186.663C82.166 186.878 82.3084 187.063 82.4967 187.191C82.685 187.319 82.9093 187.384 83.1371 187.376V187.376ZM94.2247 185.188H83.9223L70.2411 142.764H80.5436L94.2247 185.188Z" fill="#D1D3D4"/>
<path d="M53.8714 187.376H66.4818C66.6517 187.378 66.8198 187.341 66.9726 187.266C67.1254 187.192 67.2587 187.083 67.3622 186.948C67.4649 186.806 67.5335 186.641 67.5623 186.468C67.5912 186.295 67.5797 186.117 67.5287 185.949L48.4941 126.823C48.4233 126.601 48.2836 126.407 48.0953 126.271C47.9071 126.134 47.68 126.06 47.4472 126.061H34.8368C34.6641 126.058 34.4934 126.098 34.3398 126.177C34.1862 126.256 34.0545 126.371 33.9564 126.513C33.854 126.651 33.7856 126.812 33.7566 126.981C33.7277 127.151 33.7391 127.325 33.7899 127.489L52.8245 186.639C52.8962 186.858 53.0369 187.049 53.2255 187.181C53.4142 187.314 53.6407 187.383 53.8714 187.376V187.376ZM64.9828 185.187H54.6566L36.1692 128.274H46.4955L64.9828 185.187Z" fill="#D1D3D4"/>
<path d="M42.8789 187.376H135.982C136.128 187.38 136.273 187.354 136.408 187.3C136.544 187.246 136.667 187.166 136.771 187.064C136.875 186.962 136.958 186.841 137.015 186.706C137.071 186.572 137.1 186.428 137.1 186.282C137.094 185.99 136.973 185.711 136.764 185.507C136.555 185.302 136.275 185.187 135.982 185.187H42.8789C42.5886 185.187 42.3102 185.303 42.1049 185.508C41.8997 185.713 41.7843 185.992 41.7843 186.282C41.7811 186.427 41.8072 186.57 41.8611 186.705C41.9149 186.839 41.9954 186.961 42.0977 187.063C42.2 187.165 42.3219 187.246 42.4562 187.3C42.5905 187.354 42.7343 187.38 42.8789 187.376V187.376Z" fill="#D1D3D4"/>
<path d="M284.715 140.934C295.097 140.934 303.692 136.93 308.914 129.823C314.517 122.155 315.641 111.804 312.067 100.793C304.998 78.9707 281.442 61.2325 259.532 61.2325C259.389 61.231 259.247 61.2627 259.118 61.3253C258.989 61.3878 258.877 61.4794 258.789 61.5929C258.703 61.7128 258.645 61.8511 258.62 61.9969C258.596 62.1428 258.606 62.2923 258.649 62.4337L270.859 100.152H233.004C232.859 100.15 232.714 100.183 232.585 100.249C232.455 100.316 232.344 100.413 232.261 100.533C232.17 100.647 232.109 100.782 232.085 100.925C232.06 101.069 232.073 101.216 232.121 101.354C239.27 123.176 262.826 140.934 284.715 140.934ZM310.299 101.354C313.693 111.824 312.669 121.554 307.428 128.742C302.548 135.408 294.495 139.072 284.715 139.072C263.971 139.072 241.66 122.555 234.37 101.994H272.124C272.269 101.997 272.414 101.963 272.543 101.897C272.673 101.831 272.784 101.733 272.867 101.614C272.958 101.5 273.019 101.365 273.043 101.221C273.068 101.078 273.056 100.931 273.007 100.793L260.798 63.0944C281.602 63.7551 303.592 80.6724 310.299 101.354V101.354Z" fill="#D1D3D4"/>
<path d="M227.912 96.395H266.337C266.48 96.3927 266.62 96.358 266.747 96.2935C266.874 96.229 266.984 96.1365 267.069 96.0231C267.151 95.9078 267.205 95.7752 267.225 95.6358C267.246 95.4964 267.233 95.3542 267.188 95.2206L254.782 57.1705C254.723 56.9881 254.607 56.829 254.45 56.7164C254.294 56.6037 254.105 56.5434 253.911 56.5442C243.702 56.5442 235.233 60.4588 230.168 67.4072C224.647 74.9037 223.539 85.023 227.061 95.7882C227.12 95.9654 227.234 96.1196 227.387 96.2287C227.54 96.3377 227.724 96.3959 227.912 96.395V96.395ZM265.13 94.5942H228.585C225.478 84.5924 226.606 75.3343 231.612 68.4642C236.302 62.0833 243.998 58.521 253.377 58.3449L265.13 94.5942Z" fill="#D1D3D4"/>
<path d="M191.492 197.06C202.77 197.06 212.144 192.73 217.831 184.902C223.946 176.527 225.159 165.273 221.257 153.186C213.572 129.392 187.947 110.001 164.153 110.001C152.851 110.001 143.501 114.307 137.79 122.135C131.699 130.511 130.486 141.789 134.364 153.852C142.002 177.669 167.651 197.06 191.492 197.06ZM164.106 112.19C187.066 112.19 211.692 130.891 219.187 153.852C222.851 165.249 221.757 175.813 216.07 183.617C210.788 190.755 202.056 194.848 191.492 194.848C168.531 194.848 143.905 176.17 136.41 153.186C132.722 141.789 133.841 131.224 139.527 123.42C144.785 116.187 153.518 112.19 164.106 112.19Z" fill="#D1D3D4"/>
<path d="M196.75 187.733C197.122 187.703 197.469 187.53 197.717 187.251C197.965 186.972 198.096 186.608 198.082 186.234C197.464 174.124 202.484 169.175 202.532 169.127C202.792 168.864 202.938 168.509 202.938 168.14C202.938 167.77 202.792 167.415 202.532 167.152C202.403 167.021 202.25 166.916 202.08 166.844C201.911 166.773 201.728 166.736 201.544 166.736C201.36 166.736 201.178 166.773 201.009 166.844C200.839 166.916 200.685 167.021 200.557 167.152C200.319 167.366 194.513 172.91 195.203 186.449C195.24 186.823 195.422 187.169 195.712 187.409C196.002 187.65 196.375 187.767 196.75 187.733V187.733Z" fill="#231F20"/>
</g>
</svg>
